<?xml version="1.0" encoding="UTF-8"?>
<svg width="101px" height="102px" viewBox="0 0 101 102" version="1.1" xmlns="http://www.w3.org/2000/svg" xmlns:xlink="http://www.w3.org/1999/xlink">
    <!-- Generator: Sketch 52.2 (67145) - http://www.bohemiancoding.com/sketch -->
    <title>分组 3</title>
    <desc>Created with Sketch.</desc>
    <g id="Page-1" stroke="none" stroke-width="1" fill="none" fill-rule="evenodd">
        <g id="返回首页-copy-17" transform="translate(-614.000000, -1170.000000)" fill-rule="nonzero">
            <g id="分组-3" transform="translate(614.000000, 1170.000000)">
                <path d="M37.4644661,23.6252646 L37.4644661,4.66117148 C37.4644661,2.45203248 39.2553271,0.661171476 41.4644661,0.661171476 C42.410651,0.661171476 43.3262023,0.996583604 44.0484615,1.60781799 L98.9103241,48.0363772 C100.596645,49.4634785 100.806783,51.9874056 99.3796821,53.6737262 C99.2365031,53.8429122 99.0795101,53.9999053 98.9103241,54.1430842 L44.0484615,100.571643 C42.362141,101.998745 39.8382139,101.788606 38.4111126,100.102285 C37.7998782,99.3800262 37.4644661,98.4644749 37.4644661,97.51829 L37.4644661,77.6252646 L5,77.6252646 C2.23857625,77.6252646 -1.48875798e-13,75.3866884 -1.49213975e-13,72.6252646 L-1.49213975e-13,28.6252646 C-1.49552151e-13,25.8638409 2.23857625,23.6252646 5,23.6252646 L37.4644661,23.6252646 Z" id="合并形状" fill="#00CFA5"></path>
                <path d="M50,18 L74.4082128,39.0755354" id="路径-7" stroke="#FFFFFF" stroke-width="6" stroke-linecap="round"></path>
                <path d="M81,45 L84.4483496,48.0472709" id="路径-7-copy" stroke="#FFFFFF" stroke-width="6" stroke-linecap="round"></path>
            </g>
        </g>
    </g>
</svg>